<svg xmlns="http://www.w3.org/2000/svg" width="73.5" height="155.93" viewBox="0 0 73.5 155.93"><defs><style>.a{fill:#3ea3dc;}.b{fill:#fc0;}.c{fill:#86bc25;}.d,.e{fill:#575756;}.e{font-size:8px;font-family:Inter-Regular, Inter;}</style></defs><g transform="translate(-151 -306.373)"><g transform="translate(152 349)"><g transform="translate(0)"><path class="a" d="M-703.2,525.633h16.822a18.84,18.84,0,0,0,18.851-18.851V483h-25.89a9.776,9.776,0,0,0-9.783,9.783Z" transform="translate(739.987 -483)"/><path class="b" d="M-766.987,483h-18.93a9.776,9.776,0,0,0-9.783,9.783V548.42a9.776,9.776,0,0,0,9.783,9.783h14.039a4.888,4.888,0,0,0,4.892-4.892Z" transform="translate(795.7 -483)"/><path class="c" d="M-683.256,599.731H-703.3v18.851a4.888,4.888,0,0,0,4.892,4.892h21.356a9.42,9.42,0,0,0,9.425-9.425V600.765h.04V591.3A18.684,18.684,0,0,1-683.256,599.731Z" transform="translate(740.047 -548.23)"/></g><g transform="translate(0 81.925)"><path class="d" d="M-791.763,689.636a2.129,2.129,0,0,1,.636,1.591,1.983,1.983,0,0,1-.636,1.551,2.413,2.413,0,0,1-1.67.637,2.157,2.157,0,0,1-1.631-.637,2.041,2.041,0,0,1-.636-1.551,2.129,2.129,0,0,1,.636-1.591,2.157,2.157,0,0,1,1.631-.636A2.131,2.131,0,0,1-791.763,689.636Z" transform="translate(795.7 -689)"/><rect class="d" width="4.534" height="19.248" transform="translate(0.08 5.965)"/><path class="d" d="M-762.085,691.549a6.772,6.772,0,0,1,2.585,5.846,7.211,7.211,0,0,1-2.625,6.085,11.055,11.055,0,0,1-6.96,2.028h-2.863v9.068H-776.6V689.6h7.2C-766.22,689.6-763.794,690.276-762.085,691.549Zm-3.539,9.425a4.439,4.439,0,0,0,1.272-3.579c0-2.9-1.67-4.335-5.051-4.335h-2.505v8.988h2.505A5.937,5.937,0,0,0-765.624,700.974Z" transform="translate(784.196 -689.361)"/><path class="d" d="M-717.464,702.979l-.8,4.374a6,6,0,0,0-1.67-.2,3.7,3.7,0,0,0-2.625,1.193,4.822,4.822,0,0,0-1.511,3.619v10.5H-728.6V703.217h3.938l.437,3.658a6.72,6.72,0,0,1,1.949-3.1,4.4,4.4,0,0,1,2.943-1.074A8.8,8.8,0,0,1-717.464,702.979Z" transform="translate(755.285 -697.252)"/><path class="d" d="M-684.356,712.065a10.334,10.334,0,0,0-2.147-6.959,7.578,7.578,0,0,0-6.085-2.505,7.821,7.821,0,0,0-4.454,1.272,8.574,8.574,0,0,0-2.864,3.58,12.437,12.437,0,0,0-.994,5.13,10.4,10.4,0,0,0,2.307,7.159,8.34,8.34,0,0,0,6.6,2.625,10.743,10.743,0,0,0,6.92-2.505l-.517-3.7a11.905,11.905,0,0,1-1.392,1.114,11.491,11.491,0,0,1-2.346,1.273,6.467,6.467,0,0,1-2.347.4,4.463,4.463,0,0,1-3.182-1.154,6.1,6.1,0,0,1-1.432-3.9h11.732A12.771,12.771,0,0,0-684.356,712.065Zm-4.494-1.073h-7.358a7.1,7.1,0,0,1,1.114-3.9,3.133,3.133,0,0,1,2.585-1.233c2.426,0,3.659,1.631,3.659,4.931Z" transform="translate(738.602 -697.191)"/><path class="d" d="M-640.287,705.225a13.242,13.242,0,0,1,1.71,7.238,13.6,13.6,0,0,1-.875,5.13,7.794,7.794,0,0,1-2.545,3.5,6.428,6.428,0,0,1-3.977,1.272,5.74,5.74,0,0,1-4.693-2.068v7.556l-4.534.716V703.117h3.977l.239,2.307a6.985,6.985,0,0,1,2.505-2.108,6.591,6.591,0,0,1,2.983-.716A5.964,5.964,0,0,1-640.287,705.225Zm-3.062,7.278a10.182,10.182,0,0,0-.875-4.932,2.915,2.915,0,0,0-2.665-1.511,3.69,3.69,0,0,0-2.108.677,5.971,5.971,0,0,0-1.71,1.869v8.431a3.957,3.957,0,0,0,3.42,1.949C-644.622,718.945-643.349,716.8-643.349,712.5Z" transform="translate(711.076 -697.191)"/></g></g><g transform="translate(152 306.373)"><path class="d" d="M-781.3-217.107V-226.6h1.168v8.471h4.418v1.022Z" transform="translate(781.3 226.637)"/><path class="d" d="M-760.1-217.107V-226.6h5.732v1.022h-4.6v3.213h4.272v1.022h-4.272v3.213h4.674v1.022Z" transform="translate(767.84 226.637)"/><path class="d" d="M-738.6-217.107h-1.2l3.5-9.493h1.205l3.5,9.493h-1.2l-2.848-8h-.073Zm.438-3.724h4.856v1.022h-4.856Z" transform="translate(754.952 226.637)"/><path class="d" d="M-712.2-217.107V-226.6h3.213a3.874,3.874,0,0,1,1.826.365,2.394,2.394,0,0,1,1.059,1.022,3.339,3.339,0,0,1,.329,1.5,3.339,3.339,0,0,1-.329,1.5,2.394,2.394,0,0,1-1.059,1.022,3.874,3.874,0,0,1-1.826.365h-2.592v-1.022h2.556a3.026,3.026,0,0,0,1.241-.219,1.456,1.456,0,0,0,.694-.621,2.07,2.07,0,0,0,.219-.986,2.07,2.07,0,0,0-.219-.986,1.52,1.52,0,0,0-.694-.657,3.025,3.025,0,0,0-1.241-.219h-2.008v8.471H-712.2Zm4.454-4.272,2.337,4.272h-1.351l-2.3-4.272Z" transform="translate(737.429 226.637)"/><path class="d" d="M-680.742-226.7v9.493h-1.1l-5.185-7.448h-.11v7.448H-688.3V-226.7h1.1l5.185,7.485h.109V-226.7Z" transform="translate(722.255 226.7)"/><path class="d" d="M-643.093-226.7h1.168v6.28a3.157,3.157,0,0,1-.475,1.753,3.134,3.134,0,0,1-1.278,1.2,4.088,4.088,0,0,1-1.935.438,4.088,4.088,0,0,1-1.935-.438,3.134,3.134,0,0,1-1.278-1.2,3.49,3.49,0,0,1-.475-1.753v-6.28h1.168v6.207a2.707,2.707,0,0,0,.292,1.241,2.153,2.153,0,0,0,.876.84,2.639,2.639,0,0,0,1.351.292,3.072,3.072,0,0,0,1.351-.292,2.417,2.417,0,0,0,.876-.84,2.317,2.317,0,0,0,.292-1.241V-226.7Z" transform="translate(649.508 241.968)"/><path class="d" d="M-614.242-226.7v9.493h-1.1l-5.185-7.448h-.109v7.448H-621.8V-226.7h1.1l5.185,7.485h.11V-226.7Z" transform="translate(632.049 241.968)"/><path class="d" d="M-593.7-217.107V-226.6h1.168v8.471h4.418v1.022Z" transform="translate(614.208 241.905)"/><path class="d" d="M-571.332-226.7v9.493H-572.5V-226.7Z" transform="translate(600.749 241.968)"/><path class="d" d="M-561.9-226.7h1.387l3.213,7.886h.109l3.213-7.886h1.388v9.493h-1.059v-7.229h-.109l-2.958,7.229h-1.022l-2.957-7.229h-.109v7.229h-1.059V-226.7Z" transform="translate(594.019 241.968)"/><path class="d" d="M-527.832-226.7v9.493H-529V-226.7Z" transform="translate(573.131 241.968)"/><path class="d" d="M-519.8-225.678V-226.7h7.12v1.022h-2.994v8.471h-1.168v-8.471Z" transform="translate(567.29 241.968)"/><path class="d" d="M-494.3-217.107V-226.6h5.732v1.022h-4.6v3.213h4.272v1.022h-4.272v3.213h4.673v1.022Z" transform="translate(551.1 241.905)"/><path class="d" d="M-468.779-217.107H-471.7V-226.6h3.067a4.49,4.49,0,0,1,2.373.584,3.635,3.635,0,0,1,1.5,1.643,5.354,5.354,0,0,1,.511,2.519,6.134,6.134,0,0,1-.511,2.556,3.532,3.532,0,0,1-1.533,1.643A5.913,5.913,0,0,1-468.779-217.107Zm-1.789-1.022h1.716a3.8,3.8,0,0,0,1.935-.438,2.836,2.836,0,0,0,1.168-1.278,4.815,4.815,0,0,0,.365-2.008,4.64,4.64,0,0,0-.365-1.972,2.76,2.76,0,0,0-1.132-1.278,3.7,3.7,0,0,0-1.862-.438h-1.826Z" transform="translate(536.752 241.905)"/></g><text class="e" transform="translate(160 343)"><tspan x="-8.063" y="0">with</tspan></text></g></svg>