<svg xmlns="http://www.w3.org/2000/svg" width="36" height="36" viewBox="0 0 36 36"><defs><style>.a{fill:#fff;stroke:#707070;opacity:0;}.b{fill:#12131a;}.c{fill:#07f;stroke:#fdfdfd;}.d{stroke:none;}.e{fill:none;}</style></defs><g transform="translate(6 6)"><g class="a" transform="translate(-6 -6)"><rect class="d" width="36" height="36"/><rect class="e" x="0.5" y="0.5" width="35" height="35"/></g><g transform="translate(-49.117 -356.04)"><path class="b" d="M21.829,21.566H2.085A2.076,2.076,0,0,1,.3,20.574a2,2,0,0,1-.055-2.011l2.181-4.027a.28.28,0,0,0,.035-.137V9.321A9.42,9.42,0,0,1,11.957,0a9.42,9.42,0,0,1,9.5,9.321V14.4a.272.272,0,0,0,.035.136l2.181,4.028a2,2,0,0,1-.055,2.011A2.076,2.076,0,0,1,21.829,21.566ZM11.957,1.752a7.649,7.649,0,0,0-7.71,7.569V14.4a2.021,2.021,0,0,1-.245.96L1.82,19.385a.283.283,0,0,0,.009.288.294.294,0,0,0,.256.141H21.829a.294.294,0,0,0,.256-.141.285.285,0,0,0,.009-.289l-2.181-4.026a2.013,2.013,0,0,1-.245-.959V9.321A7.649,7.649,0,0,0,11.957,1.752Z" transform="translate(49.203 354.923)"/><path class="b" d="M5,5A5.01,5.01,0,0,1,0,0H1.983A3.024,3.024,0,0,0,5,3.021,3.024,3.024,0,0,0,8.026,0h1.983A5.01,5.01,0,0,1,5,5" transform="translate(56.156 375.496)"/></g><g class="c" transform="translate(13 -3)"><circle class="d" cx="6" cy="6" r="6"/><circle class="e" cx="6" cy="6" r="5.5"/></g></g></svg>